<svg width="332" height="59" viewBox="0 0 332 59" fill="none" xmlns="http://www.w3.org/2000/svg">
<g style="mix-blend-mode:multiply">
<path d="M23.7296 36.5311C23.7296 24.2624 33.6753 14.3167 45.944 14.3167C58.2126 14.3167 68.1583 24.2624 68.1583 36.5311C68.1583 48.7997 58.2126 58.7455 45.944 58.7455C33.6753 58.7455 23.7296 48.7997 23.7296 36.5311Z" fill="#353535"/>
<path d="M43.1673 53.8083C37.6919 53.8083 32.8011 51.3059 29.5758 47.3825C28.2625 45.7849 25.2946 45.6205 23.7242 46.9663C21.2492 49.0876 18.0323 50.3686 14.5171 50.3686C6.70358 50.3683 0.370682 44.0354 0.370374 36.2219C0.370374 28.4081 6.70339 22.0731 14.5171 22.0727C18.0326 22.0727 21.249 23.3549 23.7237 25.4771C25.294 26.8237 28.2631 26.6592 29.5766 25.0613C32.8016 21.1378 37.6918 18.6355 43.1673 18.6355C52.88 18.6357 60.7537 26.5091 60.7537 36.2219C60.7535 45.9345 52.8799 53.8081 43.1673 53.8083Z" fill="white"/>
<path d="M27.0754 31.3866C25.1148 31.5154 22.7704 31.0714 20.8348 29.6005L20.4539 29.2919L19.8321 28.8026C18.3348 27.727 16.504 27.0985 14.5171 27.0985V22.0727C18.0326 22.0727 21.2502 23.3541 23.7249 25.4763C25.2952 26.8226 28.2639 26.6596 29.5774 25.0617C32.8024 21.1383 37.6919 18.6355 43.1673 18.6355V23.6612C39.2584 23.6612 35.7697 25.4409 33.4581 28.2531L33.1183 28.6387C31.3788 30.5015 29.0318 31.2579 27.0754 31.3866ZM5.39609 36.2219C5.39638 41.1026 9.22716 45.086 14.0471 45.3309L14.5171 45.3429C16.5053 45.3429 18.3369 44.7142 19.8345 43.6387L20.4539 43.1518C22.4565 41.4355 24.9842 40.9197 27.0754 41.0572C29.0317 41.186 31.379 41.9424 33.1183 43.8051L33.4581 44.1907C35.6255 46.8272 38.8267 48.5574 42.4393 48.7633L43.1673 48.7826C49.8882 48.7824 55.3771 43.5052 55.7135 36.8679L55.7279 36.2219C55.7279 29.2843 50.105 23.6614 43.1673 23.6612V18.6355C52.88 18.6357 60.7537 26.5091 60.7537 36.2219C60.7535 45.9345 52.8799 53.8081 43.1673 53.8083C37.6919 53.8083 32.8003 51.3055 29.575 47.3821C28.3433 45.8848 25.6579 45.6461 24.0334 46.7313L23.7249 46.9651C21.2498 49.0864 18.0323 50.3686 14.5171 50.3686C6.70358 50.3683 0.370679 44.0354 0.370371 36.2219C0.370371 28.4081 6.70339 22.0731 14.5171 22.0727V27.0985C9.63692 27.0988 5.65272 30.9309 5.40814 35.7519L5.39609 36.2219Z" fill="#353535"/>
</g>
<path d="M312.129 14.579C315.878 14.579 319.273 15.4049 322.315 17.0567C325.382 18.6823 327.65 20.8847 329.119 23.6639C329.433 24.2145 329.591 24.8438 329.591 25.5517C329.591 26.6267 329.197 27.5574 328.411 28.344C327.65 29.1044 326.733 29.4845 325.658 29.4845C325.002 29.4845 324.321 29.2748 323.613 28.8553C322.931 28.4096 322.446 27.8983 322.158 27.3215C321.292 25.6959 319.994 24.4767 318.264 23.6639C316.534 22.8511 314.475 22.4447 312.089 22.4447C310.7 22.4447 309.127 22.6282 307.37 22.9953C305.613 23.3624 304.093 23.9523 302.808 24.7651C301.523 25.5779 300.881 26.6791 300.881 28.0687C300.881 29.0913 301.405 29.904 302.454 30.5071C303.529 31.0839 304.84 31.5296 306.387 31.8443C307.96 32.1589 309.533 32.3949 311.106 32.5522C312.679 32.6833 313.964 32.8013 314.96 32.9061C316.901 33.1159 318.815 33.4436 320.702 33.8894C322.59 34.3089 324.321 34.9381 325.894 35.7771C327.467 36.6161 328.712 37.7567 329.63 39.1987C330.574 40.6408 331.046 42.4761 331.046 44.7047C331.046 47.8772 330.128 50.4729 328.293 52.4918C326.457 54.5107 324.111 56.0052 321.253 56.9753C318.395 57.9454 315.406 58.4304 312.286 58.4304C308.012 58.4304 304.119 57.5914 300.605 55.9134C297.118 54.2092 294.536 51.7315 292.858 48.4803C292.543 47.851 292.386 47.2349 292.386 46.6318C292.386 45.5569 292.766 44.6392 293.526 43.8788C294.313 43.0923 295.244 42.699 296.319 42.699C297 42.699 297.682 42.9218 298.364 43.3676C299.072 43.7871 299.57 44.2983 299.858 44.9014C300.881 46.894 302.454 48.3361 304.578 49.2275C306.728 50.119 309.284 50.5647 312.247 50.5647C313.82 50.5647 315.445 50.3943 317.123 50.0534C318.828 49.6864 320.257 49.0702 321.41 48.205C322.59 47.3398 323.18 46.1599 323.18 44.6654C323.18 43.5118 322.669 42.6859 321.646 42.1877C320.65 41.6633 319.444 41.3225 318.028 41.1652C316.638 41.0078 315.341 40.8636 314.134 40.7325C311.827 40.4966 309.441 40.195 306.977 39.828C304.512 39.4347 302.218 38.8185 300.094 37.9795C297.997 37.1405 296.292 35.9344 294.981 34.3613C293.67 32.7882 293.015 30.6906 293.015 28.0687C293.015 25.709 293.579 23.677 294.706 21.9728C295.86 20.2685 297.38 18.8789 299.268 17.8039C301.156 16.7027 303.214 15.8899 305.443 15.3656C307.698 14.8412 309.926 14.579 312.129 14.579Z" fill="#353535"/>
<path d="M289.669 36.5244C289.669 39.4347 289.158 42.2008 288.135 44.8228C287.112 47.4447 285.67 49.7782 283.809 51.8233C281.947 53.8421 279.758 55.4415 277.241 56.6214C274.75 57.8012 272.023 58.3911 269.061 58.3911C266.622 58.3911 264.171 57.775 261.706 56.5427C259.268 55.3104 257.301 53.6193 255.807 51.4693L255.335 54.6549C255.178 55.7299 254.824 56.6607 254.273 57.4473C253.749 58.2076 252.949 58.5878 251.874 58.5878C250.799 58.5878 249.868 58.2076 249.082 57.4473C248.321 56.6607 247.941 55.7299 247.941 54.6549V4.43222C247.941 3.35724 248.321 2.43957 249.082 1.67922C249.868 0.892646 250.799 0.499359 251.874 0.499359C252.949 0.499359 253.867 0.892646 254.627 1.67922C255.414 2.43957 255.807 3.35724 255.807 4.43222V20.9896C257.511 19.0232 259.412 17.4631 261.509 16.3095C263.633 15.1558 266.058 14.579 268.785 14.579C271.46 14.579 274.042 15.0903 276.533 16.1128C279.024 17.1354 281.226 18.5774 283.14 20.439C285.316 22.589 286.942 25.0667 288.017 27.8721C289.118 30.6776 289.669 33.5617 289.669 36.5244ZM269.139 50.5254C271.578 50.5254 273.754 49.8699 275.668 48.559C277.582 47.248 279.089 45.5307 280.191 43.4069C281.292 41.257 281.842 38.9628 281.842 36.5244C281.842 34.086 281.279 31.7919 280.151 29.6419C279.05 27.4657 277.529 25.709 275.589 24.3719C273.649 23.0085 271.433 22.3268 268.943 22.3268C266.452 22.3268 264.236 22.9691 262.296 24.2539C260.356 25.5386 258.835 27.2428 257.734 29.3666C256.633 31.4903 256.082 33.8107 256.082 36.3278C256.082 38.1631 256.397 39.9591 257.026 41.7158C257.681 43.4725 258.599 45.0063 259.779 46.3172C260.959 47.602 262.388 48.6245 264.066 49.3849C265.744 50.1452 267.435 50.5254 269.139 50.5254Z" fill="#353535"/>
<path d="M204.834 14.6183C207.377 14.6183 209.606 15.2345 211.52 16.4668C213.46 17.6991 215.046 19.1935 216.279 20.9502C217.747 19.246 219.517 17.7646 221.588 16.5061C223.659 15.2213 225.967 14.579 228.51 14.579C231.866 14.579 234.645 15.4835 236.848 17.2927C239.076 19.0756 240.728 21.4222 241.803 24.3325C242.878 27.2428 243.416 30.3891 243.416 33.7714L243.455 54.7335C243.455 55.7823 243.075 56.6869 242.314 57.4472C241.554 58.2076 240.623 58.5877 239.522 58.5877C238.421 58.5877 237.49 58.2076 236.73 57.4472C235.969 56.6869 235.589 55.7823 235.589 54.7335L235.55 33.85C235.55 31.8574 235.366 29.9958 234.999 28.2654C234.632 26.5087 233.964 25.0928 232.993 24.0179C232.023 22.9429 230.621 22.4054 228.785 22.4054C226.845 22.4054 225.18 22.9429 223.79 24.0179C222.427 25.0928 221.378 26.5087 220.644 28.2654C219.936 29.9958 219.582 31.8705 219.582 33.8894L219.622 54.8515C219.622 55.9003 219.228 56.8048 218.442 57.5652C217.681 58.2993 216.764 58.6664 215.689 58.6664C214.588 58.6664 213.657 58.2862 212.896 57.5259C212.136 56.7655 211.756 55.861 211.756 54.8122V33.9287C211.756 31.4641 211.336 29.3797 210.497 27.6754C209.685 25.9712 208.623 24.6864 207.312 23.8212C206.027 22.9298 204.703 22.484 203.34 22.484C201.399 22.484 199.656 23.3886 198.109 25.1977C196.562 27.0068 195.788 29.8254 195.788 33.6534V54.8515C195.788 55.9003 195.395 56.8048 194.609 57.5652C193.848 58.2993 192.931 58.6664 191.856 58.6664C190.781 58.6664 189.85 58.2862 189.063 57.5259C188.303 56.7655 187.923 55.861 187.923 54.8122V18.4332C187.923 17.3582 188.119 16.4536 188.513 15.7195C188.932 14.9592 189.693 14.579 190.794 14.579C191.659 14.579 192.459 14.8543 193.193 15.4049C193.927 15.9555 194.517 16.8732 194.963 18.1579L195.71 20.321C196.549 18.5905 197.834 17.214 199.564 16.1915C201.321 15.1427 203.077 14.6183 204.834 14.6183Z" fill="#353535"/>
<path d="M176.2 52.4131C174.784 53.7765 173.093 55.153 171.126 56.5426C169.16 57.906 166.852 58.5877 164.204 58.5877C160.77 58.5877 157.912 57.6832 155.631 55.8741C153.35 54.0387 151.672 51.915 150.597 49.5028C149.758 47.5888 149.246 45.701 149.063 43.8395C148.906 41.9517 148.827 40.1819 148.827 38.5301V18.6691C148.827 17.5942 149.207 16.6765 149.967 15.9161C150.754 15.1296 151.685 14.7363 152.76 14.7363C153.835 14.7363 154.752 15.1296 155.513 15.9161C156.299 16.6765 156.693 17.5942 156.693 18.6691V38.5301C156.693 40.0508 156.758 41.4798 156.889 42.8169C157.047 44.1279 157.348 45.2815 157.794 46.2779C158.318 47.4315 159.105 48.4672 160.153 49.3848C161.202 50.2763 162.526 50.722 164.126 50.722C168.006 50.722 170.982 49.2406 173.053 46.2779C175.151 43.3151 176.186 39.3167 176.16 34.2826L176.121 18.5905C176.121 17.5155 176.501 16.5978 177.261 15.8375C178.048 15.0509 178.979 14.6576 180.054 14.6576C181.155 14.6576 182.086 15.0509 182.846 15.8375C183.606 16.5978 183.987 17.5286 183.987 18.6298L184.065 54.7729C184.065 55.8478 183.764 56.7786 183.161 57.5652C182.584 58.3255 181.758 58.7057 180.683 58.7057C179.608 58.7057 178.782 58.3255 178.205 57.5652C177.629 56.7786 177.183 55.8478 176.868 54.7729L176.2 52.4131Z" fill="#353535"/>
<path d="M147.29 19.613C147.29 21.7106 146.281 22.8773 144.262 23.1133C143.528 23.192 142.597 22.956 141.47 22.4054C140.342 21.8286 139.202 21.5402 138.048 21.5402C135.767 21.5402 133.958 22.1301 132.621 23.3099C131.284 24.4636 130.327 26.0236 129.75 27.9901C129.173 29.9565 128.884 32.1589 128.884 34.5973V54.8909C128.884 56.0445 128.531 56.9622 127.823 57.6439C127.141 58.3256 126.184 58.6664 124.952 58.6664C123.746 58.6664 122.789 58.3256 122.081 57.6439C121.373 56.9622 121.019 56.0314 121.019 54.8515V18.6298C121.019 17.45 121.307 16.4799 121.884 15.7195C122.487 14.9592 123.3 14.579 124.322 14.579C124.925 14.579 125.62 14.8412 126.407 15.3656C127.22 15.8637 127.783 16.7289 128.098 17.9612L128.491 20.7929C128.832 20.0588 129.488 19.2067 130.458 18.2365C131.428 17.2664 132.581 16.4274 133.919 15.7195C135.256 14.9854 136.645 14.6183 138.087 14.6183C140.762 14.6183 142.964 14.9329 144.695 15.5622C146.425 16.1652 147.29 17.5155 147.29 19.613Z" fill="#353535"/>
<path d="M79.6806 36.5249C79.6806 33.6145 80.1919 30.8484 81.2144 28.2265C82.237 25.6046 83.679 23.2711 85.5406 21.226C87.4021 19.1809 89.5652 17.5684 92.0298 16.3886C94.5206 15.2087 97.2212 14.6188 100.131 14.6188C103.016 14.6188 105.624 15.1825 107.958 16.3099C110.318 17.4111 112.336 18.8794 114.015 20.7147C115.719 22.5239 116.99 24.5034 117.829 26.6534C118.013 27.0991 118.105 27.5972 118.105 28.1478C118.105 29.2228 117.711 30.1536 116.925 30.9402C116.164 31.7005 115.247 32.0807 114.172 32.0807C113.438 32.0807 112.717 31.8316 112.009 31.3335C111.301 30.8353 110.803 30.2323 110.514 29.5244C109.78 27.6366 108.495 25.9979 106.66 24.6083C104.851 23.1924 102.675 22.4845 100.131 22.4845C97.7456 22.4845 95.5956 23.1531 93.6816 24.4903C91.7938 25.8012 90.2993 27.5186 89.1981 29.6423C88.0969 31.7661 87.5463 34.0603 87.5463 36.5249C87.5463 39.0157 88.11 41.3623 89.2375 43.5647C90.3649 45.7409 91.9118 47.5107 93.8782 48.8741C95.8447 50.2112 98.0602 50.8798 100.525 50.8798C102.937 50.8798 105.021 50.2768 106.778 49.0707C108.535 47.8384 109.859 46.4095 110.75 44.7839C111.065 44.2071 111.563 43.722 112.245 43.3287C112.926 42.9092 113.595 42.6995 114.25 42.6995C115.325 42.6995 116.243 43.0927 117.003 43.8793C117.79 44.6397 118.183 45.5573 118.183 46.6323C118.183 47.2878 118.013 47.9302 117.672 48.5594C116.178 51.3124 113.949 53.6984 110.986 55.7172C108.023 57.7361 104.536 58.7455 100.525 58.7455C97.5358 58.7455 94.7697 58.1556 92.2264 56.9758C89.7094 55.7697 87.507 54.131 85.6192 52.0597C83.7577 49.9884 82.3025 47.6286 81.2537 44.9805C80.205 42.3062 79.6806 39.4876 79.6806 36.5249Z" fill="#353535"/>
</svg>
