<svg width="435" height="296" viewBox="0 0 435 296" fill="none" xmlns="http://www.w3.org/2000/svg">
<path d="M314.944 138.97C381.218 172.439 421.742 215.209 411.777 247.276C398.495 290.047 300.501 297.63 192.888 264.222C85.2755 230.813 8.82496 169.047 22.1069 126.276C33.9567 88.1336 113.136 77.9724 206.442 99.908" stroke="black" stroke-width="1.80912" stroke-miterlimit="10" stroke-linecap="round"/>
<path d="M105.809 136.031H73.8626V294.615H105.809V136.031Z" fill="black" stroke="black" stroke-width="1.80912" stroke-miterlimit="10" stroke-linecap="round"/>
<path d="M161.756 171.248H129.81V294.615H161.756V171.248Z" fill="black" stroke="black" stroke-width="1.80912" stroke-miterlimit="10" stroke-linecap="round"/>
<path d="M217.688 212.813H185.742V294.615H217.688V212.813Z" fill="black" stroke="black" stroke-width="1.80912" stroke-miterlimit="10" stroke-linecap="round"/>
<path d="M273.619 249.583H241.673V294.615H273.619V249.583Z" fill="black" stroke="black" stroke-width="1.80912" stroke-miterlimit="10" stroke-linecap="round"/>
<path d="M329.552 272.092H297.606V294.615H329.552V272.092Z" fill="black" stroke="black" stroke-width="1.80912" stroke-miterlimit="10" stroke-linecap="round"/>
<path d="M220.839 97.5259C220.839 97.5259 240.694 19.8091 282.711 26.6234C308.189 30.7543 317.235 100.285 315.606 134.522C314.898 149.553 307.285 163.649 293.791 170.283C285.108 174.549 265.916 176.208 251.352 171.64C214.461 160.046 219.648 120.321 219.648 120.321" stroke="black" stroke-width="1.80912" stroke-miterlimit="10" stroke-linecap="round" stroke-linejoin="round"/>
<path d="M273.122 25.9905C273.122 25.9905 269.776 50.4136 296.882 56.8059C296.882 56.8059 299.174 65.7761 308.129 67.2234C317.084 68.6707 319.315 44.0063 304.616 40.4333C304.616 40.4333 305.491 39.8152 306.305 38.2624C308.762 33.5587 306.395 27.9202 301.556 25.7493C291.47 21.2416 276.424 24.1663 276.424 24.1663C273.605 14.2765 255.514 -4.77972 247.659 2.69799C239.804 10.1757 256.599 22.6436 256.599 22.6436C250.961 27.1664 255.83 34.418 255.936 34.3276C255.936 34.3276 263.775 27.9353 273.122 25.9905Z" fill="black" stroke="black" stroke-width="1.80912" stroke-miterlimit="10" stroke-linecap="round" stroke-linejoin="round"/>
<path d="M264.137 90.4704C273.121 90.4704 280.404 83.1874 280.404 74.2034C280.404 65.2194 273.121 57.9363 264.137 57.9363C255.153 57.9363 247.87 65.2194 247.87 74.2034C247.87 83.1874 255.153 90.4704 264.137 90.4704Z" fill="white" stroke="black" stroke-width="1.80912" stroke-miterlimit="10" stroke-linecap="round" stroke-linejoin="round"/>
<path d="M274.283 86.9125C267.258 92.5208 257.021 91.375 251.413 84.3496C245.805 77.3242 246.951 67.0876 253.976 61.4793L274.283 86.9125Z" fill="black"/>
<path d="M235.07 162.88L273.619 227.059" stroke="black" stroke-width="1.80912" stroke-miterlimit="10" stroke-linecap="round" stroke-linejoin="round"/>
<path d="M272.957 175.484L303.11 227.24" stroke="black" stroke-width="1.80912" stroke-miterlimit="10" stroke-linecap="round" stroke-linejoin="round"/>
<path d="M266.655 216.204C237.181 219.988 229.673 248.799 230.065 249.372H329.552C326.341 219.611 295.164 213.596 295.164 213.596" stroke="black" stroke-width="1.80912" stroke-miterlimit="10" stroke-linecap="round" stroke-linejoin="round"/>
<path d="M188.682 140.086C192.3 95.0236 216.331 97.074 216.331 97.074C216.331 97.074 240.272 96.6819 264.137 124.271" stroke="black" stroke-width="1.80912" stroke-miterlimit="10" stroke-linecap="round" stroke-linejoin="round"/>
<path d="M195.558 143.84C195.558 143.84 173.908 126.638 141.525 146.584C141.525 146.584 196.1 142.031 222.905 183.113" stroke="black" stroke-width="1.80912" stroke-miterlimit="10" stroke-linecap="round" stroke-linejoin="round"/>
<path d="M208.793 148.739C213.105 153.262 223.282 165.444 223.704 179.947C223.779 182.826 221.774 185.344 218.955 185.962C212.593 187.349 198.21 186.354 172.355 174.73C148.248 163.619 137.047 150.865 141.509 146.599" stroke="black" stroke-width="1.80912" stroke-miterlimit="10" stroke-linecap="round" stroke-linejoin="round"/>
<path d="M162.903 169.937C185.155 183.957 219.287 190.591 222.528 183.641C223.885 180.731 204.452 158.117 178.446 151.137L156.902 146.961C155.123 146.644 149.605 146.569 147.811 146.463C139.836 145.951 139.444 148.257 141.54 152.343C142.671 154.544 144.404 157.152 146.394 158.63L162.903 169.937Z" fill="black"/>
<path d="M195.904 143.162L188.728 135.216L188.532 139.754L195.904 143.162Z" fill="black"/>
<path d="M222.031 121.467L221.368 113.794L219.664 119.703L222.031 121.467Z" fill="black"/>
<path d="M220.629 113.899L212.02 152.403" stroke="black" stroke-width="1.80912" stroke-miterlimit="10" stroke-linecap="round" stroke-linejoin="round"/>
<path d="M219.392 119.432L250.66 151.076" stroke="black" stroke-width="1.80912" stroke-miterlimit="10" stroke-linecap="round" stroke-linejoin="round"/>
<path d="M250.267 151.679L219.738 120.11L219.24 126.141L250.267 151.679Z" fill="black"/>
<path d="M231.602 86.7467C240.586 86.7467 247.869 79.4638 247.869 70.4797C247.869 61.4957 240.586 54.2127 231.602 54.2127C222.618 54.2127 215.335 61.4957 215.335 70.4797C215.335 79.4638 222.618 86.7467 231.602 86.7467Z" fill="white" stroke="black" stroke-width="1.80912" stroke-miterlimit="10" stroke-linecap="round" stroke-linejoin="round"/>
<path d="M241.749 83.2038C234.724 88.8121 224.487 87.6663 218.879 80.6409C213.271 73.6155 214.416 63.3789 221.442 57.7706L241.749 83.2038Z" fill="black"/>
<path d="M99.6128 108.863C112.002 108.863 122.046 98.8194 122.046 86.4299C122.046 74.0404 112.002 63.9968 99.6128 63.9968C87.2233 63.9968 77.1796 74.0404 77.1796 86.4299C77.1796 98.8194 87.2233 108.863 99.6128 108.863Z" fill="white" stroke="black" stroke-width="1.80912" stroke-miterlimit="10" stroke-linecap="round" stroke-linejoin="round"/>
<path d="M98.9042 73.7359V88.6159L108.93 92.3547" stroke="black" stroke-width="1.80912" stroke-miterlimit="10" stroke-linecap="round" stroke-linejoin="round"/>
<path d="M67.666 228.522C80.0554 228.522 90.0991 218.478 90.0991 206.089C90.0991 193.699 80.0554 183.656 67.666 183.656C55.2765 183.656 45.2328 193.699 45.2328 206.089C45.2328 218.478 55.2765 228.522 67.666 228.522Z" fill="white" stroke="black" stroke-width="1.80912" stroke-miterlimit="10" stroke-linecap="round" stroke-linejoin="round"/>
<path d="M67.6668 218.919C67.6668 218.919 83.9489 207.687 78.9889 198.295C75.3706 191.435 67.6668 201.822 67.6668 201.822C67.6668 201.822 59.978 191.45 56.3447 198.295C51.3998 207.687 67.6668 218.919 67.6668 218.919Z" fill="black"/>
<path d="M1 147.307L21.7145 126.593L42.444 147.307" stroke="black" stroke-width="1.80912" stroke-miterlimit="10" stroke-linecap="round"/>
<path d="M362.9 122.206L334.286 193.259" stroke="black" stroke-width="1.80912" stroke-miterlimit="10" stroke-linecap="round" stroke-linejoin="round"/>
<path d="M339.533 136.875L357.67 178.59" stroke="black" stroke-width="1.80912" stroke-miterlimit="10" stroke-linecap="round" stroke-linejoin="round"/>
<path d="M369.595 148.981L327.608 166.484" stroke="black" stroke-width="1.80912" stroke-miterlimit="10" stroke-linecap="round" stroke-linejoin="round"/>
<path d="M433.456 230.165L389.736 242.542L381.278 211.425L424.908 199.787L433.456 230.165Z" fill="white"/>
<path d="M425.149 199.541L381.3 211.464L389.766 242.598L433.614 230.675L425.149 199.541Z" stroke="black" stroke-width="1.97752" stroke-miterlimit="10" stroke-linecap="round" stroke-linejoin="round"/>
<path d="M381.278 211.425L407.872 222.642L425.119 199.5" stroke="black" stroke-width="1.97752" stroke-miterlimit="10" stroke-linecap="round" stroke-linejoin="round"/>
</svg>
